<svg width="18" height="35" viewBox="0 0 188 85" fill="none" xmlns="http://www.w3.org/2000/svg">
<path d="M134.349 48.948C133.965 48.972 133.497 49.224 132.945 49.704C132.393 50.16 131.793 50.76 131.145 51.504C130.521 52.224 129.861 53.028 129.165 53.916C128.493 54.804 127.833 55.692 127.185 56.58C126.561 57.444 125.973 58.26 125.421 59.028C124.869 59.796 124.401 60.408 124.017 60.864C123.489 60.648 123.033 60.336 122.649 59.928C122.265 59.496 121.989 58.968 121.821 58.344C121.941 57.6 122.109 56.832 122.325 56.04C122.541 55.224 122.817 54.384 123.153 53.52C123.513 52.656 123.945 51.756 124.449 50.82C124.977 49.86 125.613 48.852 126.357 47.796C125.997 47.82 125.505 48.084 124.881 48.588C124.257 49.068 123.585 49.704 122.865 50.496C122.145 51.264 121.401 52.14 120.633 53.124C119.865 54.084 119.145 55.032 118.473 55.968C117.585 57.216 116.841 58.308 116.241 59.244C115.665 60.18 115.245 60.732 114.981 60.9C114.357 60.444 113.925 59.952 113.685 59.424C113.445 58.896 113.265 58.308 113.145 57.66C113.169 57.084 113.253 56.364 113.397 55.5C113.565 54.636 113.793 53.748 114.081 52.836C114.633 51.084 115.341 49.344 116.205 47.616C117.093 45.888 117.945 44.304 118.761 42.864C119.433 43.008 120.033 43.236 120.561 43.548C121.113 43.86 121.689 44.316 122.289 44.916C122.049 45.66 121.677 46.452 121.173 47.292C120.669 48.108 120.141 48.972 119.589 49.884C119.037 50.796 118.533 51.732 118.077 52.692C117.621 53.652 117.321 54.624 117.177 55.608C117.849 54.648 118.641 53.544 119.553 52.296C120.489 51.048 121.437 49.872 122.397 48.768C123.381 47.664 124.353 46.728 125.313 45.96C126.273 45.192 127.137 44.808 127.905 44.808C128.193 44.808 128.505 44.856 128.841 44.952C129.177 45.048 129.489 45.168 129.777 45.312C130.065 45.456 130.305 45.6 130.497 45.744C130.689 45.864 130.797 45.96 130.821 46.032C130.701 46.512 130.413 47.172 129.957 48.012C129.525 48.828 129.057 49.692 128.553 50.604C128.049 51.516 127.581 52.404 127.149 53.268C126.717 54.108 126.465 54.78 126.393 55.284C127.569 53.676 128.673 52.224 129.705 50.928C130.737 49.608 131.709 48.48 132.621 47.544C133.533 46.608 134.373 45.888 135.141 45.384C135.933 44.88 136.677 44.628 137.373 44.628C137.853 44.628 138.297 44.76 138.705 45.024C139.137 45.264 139.437 45.624 139.605 46.104C139.389 46.824 139.029 47.688 138.525 48.696C138.045 49.704 137.553 50.772 137.049 51.9C136.545 53.004 136.089 54.096 135.681 55.176C135.297 56.256 135.105 57.228 135.105 58.092C135.105 58.596 135.177 58.932 135.321 59.1C135.465 59.244 135.669 59.316 135.933 59.316C136.221 59.316 136.485 59.268 136.725 59.172C136.989 59.052 137.181 58.992 137.301 58.992C137.445 59.088 137.529 59.208 137.553 59.352C137.577 59.496 137.589 59.628 137.589 59.748C137.109 60.132 136.617 60.444 136.113 60.684C135.609 60.948 135.045 61.08 134.421 61.08C133.845 61.08 133.365 60.984 132.981 60.792C132.621 60.6 132.321 60.336 132.081 60C131.841 59.664 131.673 59.28 131.577 58.848C131.481 58.416 131.433 57.948 131.433 57.444C131.433 56.628 131.541 55.824 131.757 55.032C131.973 54.216 132.225 53.448 132.513 52.728C132.825 51.984 133.149 51.3 133.485 50.676C133.821 50.028 134.109 49.452 134.349 48.948ZM145.316 61.26C143.948 61.116 142.856 60.516 142.04 59.46C141.224 58.404 140.816 57.06 140.816 55.428C140.816 54.468 140.96 53.472 141.248 52.44C141.536 51.408 141.944 50.412 142.472 49.452C143 48.468 143.624 47.544 144.344 46.68C145.064 45.816 145.844 45.072 146.684 44.448C148.004 43.464 149.24 42.972 150.392 42.972C151.16 43.38 151.916 44.232 152.66 45.528C152.78 45.528 152.888 45.528 152.984 45.528C153.08 45.504 153.188 45.492 153.308 45.492C154.58 45.492 155.216 46.62 155.216 48.876C155.216 50.388 154.964 51.828 154.46 53.196C153.98 54.54 153.296 55.764 152.408 56.868C151.544 57.972 150.5 58.908 149.276 59.676C148.076 60.42 146.756 60.948 145.316 61.26ZM147.152 49.92C146.744 50.472 146.36 51.072 146 51.72C145.64 52.368 145.328 53.028 145.064 53.7C144.8 54.348 144.596 54.984 144.452 55.608C144.308 56.208 144.236 56.748 144.236 57.228C144.236 57.804 144.332 58.356 144.524 58.884C144.716 59.412 144.932 59.712 145.172 59.784C146.252 59.544 147.236 59.1 148.124 58.452C149.036 57.78 149.816 56.952 150.464 55.968C151.136 54.984 151.652 53.868 152.012 52.62C152.396 51.372 152.588 50.04 152.588 48.624C152.588 48 152.552 47.508 152.48 47.148C152.408 46.788 152.288 46.476 152.12 46.212C151.064 46.524 150.116 47.028 149.276 47.724C148.46 48.42 147.752 49.152 147.152 49.92ZM164.807 43.188C165.287 43.188 165.839 43.332 166.463 43.62C167.087 43.908 167.639 44.28 168.119 44.736C167.999 43.776 167.843 42.876 167.651 42.036C167.483 41.172 167.219 40.284 166.859 39.372C166.523 38.46 166.067 37.464 165.491 36.384C164.915 35.304 164.195 34.068 163.331 32.676C163.403 32.46 163.559 32.208 163.799 31.92C164.063 31.632 164.351 31.368 164.663 31.128C164.999 30.864 165.335 30.636 165.671 30.444C166.031 30.252 166.367 30.132 166.679 30.084C167.351 30.828 167.987 31.764 168.587 32.892C169.187 33.996 169.715 35.196 170.171 36.492C170.627 37.764 170.975 39.084 171.215 40.452C171.479 41.82 171.611 43.128 171.611 44.376C171.611 45.624 171.467 46.908 171.179 48.228C170.915 49.548 170.531 50.844 170.027 52.116C169.547 53.364 168.983 54.552 168.335 55.68C167.687 56.808 166.979 57.816 166.211 58.704C165.467 59.592 164.687 60.312 163.871 60.864C163.055 61.44 162.239 61.8 161.423 61.944C159.767 61.752 158.495 61.212 157.607 60.324C156.743 59.46 156.311 58.26 156.311 56.724C156.311 55.908 156.431 55.02 156.671 54.06C156.935 53.1 157.271 52.152 157.679 51.216C158.111 50.256 158.603 49.332 159.155 48.444C159.731 47.532 160.331 46.716 160.955 45.996C161.603 45.276 162.251 44.664 162.899 44.16C163.547 43.656 164.183 43.332 164.807 43.188ZM161.135 60.504C161.975 60.216 162.815 59.58 163.655 58.596C164.495 57.612 165.251 56.46 165.923 55.14C166.595 53.796 167.135 52.368 167.543 50.856C167.975 49.32 168.191 47.844 168.191 46.428C168.191 46.02 168.191 45.768 168.191 45.672C168.191 45.576 168.179 45.48 168.155 45.384C167.579 45.624 166.967 46.032 166.319 46.608C165.671 47.184 165.023 47.856 164.375 48.624C163.727 49.368 163.115 50.184 162.539 51.072C161.963 51.96 161.447 52.848 160.991 53.736C160.535 54.624 160.175 55.476 159.911 56.292C159.647 57.108 159.515 57.828 159.515 58.452C159.515 59.652 160.055 60.336 161.135 60.504ZM184.953 45.456C185.193 45.456 185.469 45.504 185.781 45.6C186.117 45.672 186.417 45.78 186.681 45.924C186.945 46.044 187.161 46.176 187.329 46.32C187.521 46.464 187.617 46.596 187.617 46.716C187.137 47.724 186.693 48.744 186.285 49.776C185.877 50.784 185.529 51.756 185.241 52.692C184.953 53.628 184.725 54.504 184.557 55.32C184.413 56.136 184.341 56.844 184.341 57.444C184.341 58.116 184.413 58.68 184.557 59.136C184.701 59.568 184.941 59.88 185.277 60.072C184.989 60.264 184.617 60.42 184.161 60.54C183.705 60.66 183.297 60.72 182.937 60.72C181.641 60.72 180.993 59.832 180.993 58.056C180.993 56.688 181.449 54.816 182.361 52.44C181.881 53.544 181.329 54.588 180.705 55.572C180.081 56.532 179.445 57.384 178.797 58.128C178.149 58.872 177.489 59.484 176.817 59.964C176.169 60.42 175.569 60.696 175.017 60.792C174.129 60.744 173.409 60.324 172.857 59.532C172.305 58.716 172.029 57.684 172.029 56.436C172.029 55.092 172.317 53.676 172.893 52.188C173.469 50.7 174.201 49.32 175.089 48.048C176.001 46.776 176.985 45.72 178.041 44.88C179.097 44.016 180.117 43.56 181.101 43.512C181.341 43.584 181.605 43.728 181.893 43.944C182.205 44.16 182.493 44.412 182.757 44.7C183.045 44.988 183.285 45.288 183.477 45.6C183.669 45.888 183.777 46.14 183.801 46.356C182.841 46.5 181.845 46.968 180.813 47.76C179.805 48.552 178.881 49.512 178.041 50.64C177.225 51.744 176.553 52.932 176.025 54.204C175.497 55.476 175.233 56.664 175.233 57.768C175.233 58.224 175.401 58.512 175.737 58.632C176.433 58.488 177.237 57.9 178.149 56.868C179.061 55.812 180.165 54.192 181.461 52.008C181.701 51.576 181.965 51.096 182.253 50.568C182.565 50.04 182.877 49.488 183.189 48.912C183.501 48.336 183.801 47.76 184.089 47.184C184.401 46.584 184.689 46.008 184.953 45.456Z" fill="white"/>
<path d="M16.0831 22.05V23.52C13.9365 23.52 12.5831 23.8 12.0231 24.36L22.7331 53.69L33.0231 24.78C32.5565 23.94 31.1098 23.52 28.6831 23.52V22.05H40.1631V23.52C37.5498 23.52 36.1265 23.8933 35.8931 24.64L22.1731 63H18.8131L5.23313 24.99C4.85979 24.01 3.36646 23.52 0.753125 23.52L0.753125 22.05H16.0831ZM42.4693 63V61.53C44.9893 61.53 46.4593 61.0633 46.8793 60.13V24.92C46.4593 23.9867 44.9893 23.52 42.4693 23.52V22.05H57.7293V23.52C55.2093 23.52 53.7393 23.9867 53.3193 24.92V60.62H69.2793C70.446 60.1067 71.496 58.6367 72.4293 56.21H73.8293L72.1493 63H42.4693ZM84.1007 22.05V23.52C81.954 23.52 80.6007 23.8 80.0407 24.36L90.7507 53.69L101.041 24.78C100.574 23.94 99.1274 23.52 96.7007 23.52V22.05H108.181V23.52C105.567 23.52 104.144 23.8933 103.911 24.64L90.1907 63H86.8307L73.2507 24.99C72.8774 24.01 71.384 23.52 68.7707 23.52V22.05H84.1007Z" fill="#DA9405"/>
</svg>
