<svg width="16" height="5" viewBox="0 0 16 5" fill="none" xmlns="http://www.w3.org/2000/svg">
<path d="M10.6605 2.77627C10.6285 2.77853 10.5893 2.80226 10.5432 2.84746C10.4971 2.8904 10.447 2.94689 10.3928 3.01695C10.3407 3.08475 10.2856 3.16045 10.2274 3.24407C10.1713 3.32768 10.1161 3.4113 10.062 3.49492C10.0098 3.57627 9.96071 3.65311 9.91459 3.72542C9.86847 3.79774 9.82937 3.85537 9.79728 3.8983C9.75317 3.87797 9.71507 3.84859 9.68299 3.81017C9.6509 3.76949 9.62784 3.71977 9.61381 3.66102C9.62383 3.59096 9.63787 3.51864 9.65592 3.44407C9.67396 3.36723 9.69702 3.28814 9.7251 3.20678C9.75517 3.12542 9.79127 3.04068 9.83338 2.95254C9.87749 2.86215 9.93063 2.76723 9.99279 2.6678C9.96272 2.67006 9.92161 2.69492 9.86947 2.74237C9.81734 2.78757 9.76119 2.84746 9.70103 2.92203C9.64088 2.99435 9.57871 3.07684 9.51455 3.16949C9.45038 3.25989 9.39022 3.34915 9.33408 3.43729C9.25988 3.5548 9.19772 3.65763 9.14759 3.74576C9.09946 3.8339 9.06437 3.88588 9.04232 3.9017C8.99018 3.85876 8.95409 3.81243 8.93403 3.76271C8.91398 3.71299 8.89894 3.65763 8.88892 3.59661C8.89092 3.54237 8.89794 3.47458 8.90997 3.39322C8.92401 3.31186 8.94306 3.22825 8.96712 3.14237C9.01324 2.9774 9.07239 2.81356 9.14458 2.65085C9.21878 2.48814 9.28996 2.33898 9.35814 2.20339C9.41429 2.21695 9.46442 2.23842 9.50853 2.2678C9.55465 2.29718 9.60278 2.34011 9.65291 2.39661C9.63286 2.46667 9.60177 2.54124 9.55966 2.62034C9.51755 2.69718 9.47344 2.77853 9.42732 2.86441C9.3812 2.95028 9.33909 3.03842 9.30099 3.12881C9.26289 3.21921 9.23783 3.31073 9.22579 3.40339C9.28194 3.31299 9.34811 3.20904 9.42431 3.09153C9.50252 2.97401 9.58172 2.86328 9.66193 2.75932C9.74415 2.65537 9.82536 2.56723 9.90557 2.49492C9.98578 2.4226 10.058 2.38644 10.1221 2.38644C10.1462 2.38644 10.1723 2.39096 10.2003 2.4C10.2284 2.40904 10.2545 2.42034 10.2785 2.4339C10.3026 2.44746 10.3227 2.46102 10.3387 2.47458C10.3547 2.48588 10.3638 2.49492 10.3658 2.5017C10.3557 2.54689 10.3317 2.60904 10.2936 2.68814C10.2575 2.76497 10.2184 2.84633 10.1763 2.9322C10.1342 3.01808 10.0951 3.1017 10.059 3.18305C10.0229 3.26215 10.0018 3.32542 9.9958 3.37288C10.0941 3.22147 10.1863 3.08475 10.2725 2.96271C10.3587 2.83842 10.44 2.7322 10.5162 2.64407C10.5924 2.55593 10.6625 2.48814 10.7267 2.44068C10.7929 2.39322 10.855 2.36949 10.9132 2.36949C10.9533 2.36949 10.9904 2.38192 11.0245 2.40678C11.0606 2.42938 11.0856 2.46328 11.0997 2.50847C11.0816 2.57627 11.0516 2.65763 11.0094 2.75254C10.9693 2.84746 10.9282 2.94802 10.8861 3.05424C10.844 3.15819 10.8059 3.26102 10.7718 3.36271C10.7397 3.46441 10.7237 3.55593 10.7237 3.63729C10.7237 3.68475 10.7297 3.71638 10.7417 3.7322C10.7538 3.74576 10.7708 3.75254 10.7929 3.75254C10.8169 3.75254 10.839 3.74802 10.8591 3.73898C10.8811 3.72768 10.8972 3.72203 10.9072 3.72203C10.9192 3.73107 10.9262 3.74237 10.9282 3.75593C10.9302 3.76949 10.9312 3.78192 10.9312 3.79322C10.8911 3.82938 10.85 3.85876 10.8079 3.88136C10.7658 3.90621 10.7187 3.91864 10.6666 3.91864C10.6184 3.91864 10.5783 3.9096 10.5462 3.89153C10.5162 3.87345 10.4911 3.84859 10.471 3.81695C10.451 3.78531 10.437 3.74915 10.4289 3.70847C10.4209 3.6678 10.4169 3.62373 10.4169 3.57627C10.4169 3.49944 10.4259 3.42373 10.444 3.34915C10.462 3.27232 10.4831 3.2 10.5071 3.1322C10.5332 3.06215 10.5603 2.99774 10.5883 2.93898C10.6164 2.87797 10.6405 2.82373 10.6605 2.77627ZM11.5768 3.93559C11.4625 3.92203 11.3713 3.86554 11.3031 3.7661C11.2349 3.66667 11.2009 3.54011 11.2009 3.38644C11.2009 3.29605 11.2129 3.20226 11.237 3.10508C11.261 3.00791 11.2951 2.91412 11.3392 2.82373C11.3833 2.73107 11.4355 2.64407 11.4956 2.56271C11.5558 2.48136 11.621 2.4113 11.6911 2.35254C11.8014 2.25989 11.9047 2.21356 12.0009 2.21356C12.0651 2.25198 12.1283 2.3322 12.1904 2.45424C12.2005 2.45424 12.2095 2.45424 12.2175 2.45424C12.2255 2.45198 12.2346 2.45085 12.2446 2.45085C12.3509 2.45085 12.404 2.55706 12.404 2.76949C12.404 2.91186 12.3829 3.04746 12.3408 3.17627C12.3007 3.30282 12.2436 3.41808 12.1694 3.52203C12.0972 3.62599 12.01 3.71412 11.9077 3.78644C11.8074 3.8565 11.6972 3.90621 11.5768 3.93559ZM11.7302 2.8678C11.6962 2.91977 11.6641 2.97627 11.634 3.03729C11.6039 3.09831 11.5778 3.16045 11.5558 3.22373C11.5337 3.28475 11.5167 3.34463 11.5047 3.40339C11.4926 3.45989 11.4866 3.51073 11.4866 3.55593C11.4866 3.61017 11.4946 3.66215 11.5107 3.71186C11.5267 3.76158 11.5448 3.78983 11.5648 3.79661C11.655 3.77401 11.7373 3.7322 11.8115 3.67119C11.8877 3.60791 11.9528 3.52994 12.007 3.43729C12.0631 3.34463 12.1062 3.23955 12.1363 3.12203C12.1684 3.00452 12.1844 2.8791 12.1844 2.74576C12.1844 2.68701 12.1814 2.64068 12.1754 2.60678C12.1694 2.57288 12.1594 2.5435 12.1453 2.51864C12.0571 2.54802 11.9779 2.59548 11.9077 2.66102C11.8395 2.72655 11.7804 2.79548 11.7302 2.8678ZM13.2053 2.2339C13.2454 2.2339 13.2916 2.24746 13.3437 2.27458C13.3958 2.30169 13.442 2.33672 13.4821 2.37966C13.472 2.28927 13.459 2.20452 13.443 2.12542C13.4289 2.04407 13.4069 1.96045 13.3768 1.87458C13.3487 1.7887 13.3106 1.69492 13.2625 1.59322C13.2144 1.49153 13.1542 1.37514 13.082 1.24407C13.088 1.22373 13.1011 1.2 13.1211 1.17288C13.1432 1.14576 13.1672 1.1209 13.1933 1.09831C13.2214 1.07345 13.2495 1.05198 13.2775 1.0339C13.3076 1.01582 13.3357 1.00452 13.3617 1C13.4179 1.07006 13.471 1.15819 13.5212 1.26441C13.5713 1.36836 13.6154 1.48136 13.6535 1.60339C13.6916 1.72316 13.7207 1.84746 13.7407 1.97627C13.7628 2.10508 13.7738 2.22825 13.7738 2.34576C13.7738 2.46328 13.7618 2.58418 13.7377 2.70847C13.7157 2.83277 13.6836 2.9548 13.6415 3.07458C13.6014 3.19209 13.5542 3.30395 13.5001 3.41017C13.446 3.51638 13.3868 3.6113 13.3226 3.69492C13.2605 3.77853 13.1953 3.84633 13.1271 3.8983C13.059 3.95254 12.9908 3.98644 12.9226 4C12.7842 3.98192 12.678 3.93107 12.6038 3.84746C12.5316 3.7661 12.4955 3.65311 12.4955 3.50847C12.4955 3.43164 12.5055 3.34802 12.5256 3.25763C12.5476 3.16723 12.5757 3.07797 12.6098 2.98983C12.6459 2.89944 12.687 2.81243 12.7331 2.72881C12.7812 2.64294 12.8314 2.5661 12.8835 2.4983C12.9376 2.43051 12.9918 2.37288 13.0459 2.32542C13.1001 2.27797 13.1532 2.24746 13.2053 2.2339ZM12.8985 3.86441C12.9687 3.83729 13.0389 3.7774 13.1091 3.68475C13.1793 3.59209 13.2424 3.48362 13.2986 3.35932C13.3547 3.23277 13.3998 3.0983 13.4339 2.95593C13.47 2.8113 13.4881 2.67232 13.4881 2.53898C13.4881 2.50057 13.4881 2.47684 13.4881 2.4678C13.4881 2.45876 13.4871 2.44972 13.4851 2.44068C13.4369 2.46328 13.3858 2.5017 13.3317 2.55593C13.2775 2.61017 13.2234 2.67345 13.1692 2.74576C13.1151 2.81582 13.064 2.89266 13.0158 2.97627C12.9677 3.05989 12.9246 3.1435 12.8865 3.22712C12.8484 3.31073 12.8183 3.39096 12.7963 3.4678C12.7742 3.54463 12.7632 3.61243 12.7632 3.67119C12.7632 3.78418 12.8083 3.84859 12.8985 3.86441ZM14.8886 2.44746C14.9086 2.44746 14.9317 2.45198 14.9577 2.46102C14.9858 2.4678 15.0109 2.47797 15.0329 2.49153C15.055 2.50282 15.073 2.51525 15.0871 2.52881C15.1031 2.54237 15.1111 2.5548 15.1111 2.5661C15.071 2.66102 15.0339 2.75706 14.9998 2.85424C14.9658 2.94915 14.9367 3.04068 14.9126 3.12881C14.8886 3.21695 14.8695 3.29944 14.8555 3.37627C14.8434 3.45311 14.8374 3.51977 14.8374 3.57627C14.8374 3.63955 14.8434 3.69266 14.8555 3.73559C14.8675 3.77627 14.8876 3.80565 14.9156 3.82373C14.8916 3.84181 14.8605 3.8565 14.8224 3.8678C14.7843 3.8791 14.7502 3.88475 14.7201 3.88475C14.6118 3.88475 14.5577 3.80113 14.5577 3.6339C14.5577 3.50508 14.5958 3.32881 14.672 3.10508C14.6319 3.20904 14.5858 3.30734 14.5336 3.4C14.4815 3.4904 14.4284 3.57062 14.3742 3.64068C14.3201 3.71073 14.2649 3.76836 14.2088 3.81356C14.1546 3.8565 14.1045 3.88249 14.0584 3.89153C13.9842 3.88701 13.924 3.84746 13.8779 3.77288C13.8318 3.69605 13.8087 3.59887 13.8087 3.48136C13.8087 3.3548 13.8328 3.22147 13.8809 3.08136C13.9291 2.94124 13.9902 2.8113 14.0644 2.69153C14.1406 2.57175 14.2228 2.47232 14.3111 2.39322C14.3993 2.31186 14.4845 2.26893 14.5667 2.26441C14.5868 2.27119 14.6088 2.28475 14.6329 2.30508C14.659 2.32542 14.683 2.34915 14.7051 2.37627C14.7291 2.40339 14.7492 2.43164 14.7652 2.46102C14.7813 2.48814 14.7903 2.51186 14.7923 2.5322C14.7121 2.54576 14.6289 2.58983 14.5427 2.66441C14.4584 2.73898 14.3812 2.82938 14.3111 2.93559C14.2429 3.03955 14.1867 3.15141 14.1426 3.27119C14.0985 3.39096 14.0764 3.50283 14.0764 3.60678C14.0764 3.64972 14.0905 3.67684 14.1186 3.68814C14.1767 3.67458 14.2439 3.61921 14.3201 3.52203C14.3963 3.4226 14.4885 3.27006 14.5968 3.06441C14.6168 3.02373 14.6389 2.97853 14.663 2.92881C14.689 2.8791 14.7151 2.82712 14.7412 2.77288C14.7672 2.71864 14.7923 2.66441 14.8164 2.61017C14.8424 2.55367 14.8665 2.49944 14.8886 2.44746Z" fill="white"/>
<path d="M1.26845 1V1.10769C1.09083 1.10769 0.978846 1.12821 0.93251 1.16923L1.81869 3.31795L2.67011 1.2C2.6315 1.13846 2.5118 1.10769 2.31101 1.10769V1H3.26089V1.10769C3.04466 1.10769 2.92689 1.13504 2.90758 1.18974L1.77235 4H1.49433L0.370688 1.21538C0.339797 1.14359 0.216235 1.10769 0 1.10769V1H1.26845ZM3.45172 4V3.89231C3.66023 3.89231 3.78186 3.85812 3.81661 3.78974V1.21026C3.78186 1.14188 3.66023 1.10769 3.45172 1.10769V1H4.71437V1.10769C4.50586 1.10769 4.38423 1.14188 4.34948 1.21026V3.82564H5.67005C5.76659 3.78804 5.85347 3.68034 5.93069 3.50256H6.04653L5.90752 4H3.45172ZM6.89642 1V1.10769C6.71879 1.10769 6.60682 1.12821 6.56048 1.16923L7.44666 3.31795L8.29811 1.2C8.25946 1.13846 8.13977 1.10769 7.93898 1.10769V1H8.88889V1.10769C8.6726 1.10769 8.55486 1.13504 8.53558 1.18974L7.40032 4H7.12231L5.99866 1.21538C5.96777 1.14359 5.8442 1.10769 5.62797 1.10769V1H6.89642Z" fill="#DA9405"/>
</svg>
